<svg xmlns="http://www.w3.org/2000/svg" xmlns:xlink="http://www.w3.org/1999/xlink" width="115" height="34.377" viewBox="0 0 115 34.377">
  <defs>
    <clipPath id="clip-path">
      <path id="Clip_10" data-name="Clip 10" d="M0,0H23.328V33.792H0Z" transform="translate(0 0.123)" fill="none"/>
    </clipPath>
  </defs>
  <g id="Group_14" data-name="Group 14" transform="translate(0 -0.123)">
    <g id="Logotype">
      <path id="Fill_1" data-name="Fill 1" d="M0,1.736l.133.924,2.185.833q.089,2.479.089,5.431v7.252c0,.915-.009,1.641-.021,2.2v3.257c1.066-.012,2.117-.034,3.2-.034,1.007,0,2.025.021,3.038.031V7.911h.006V6.8q0-3.513.13-6.624L8.517,0C5.8.6,3.591,1.181,0,1.736" transform="translate(29.188 12.28)" fill="#fff"/>
      <path id="Fill_3" data-name="Fill 3" d="M15.156,19.169a8.182,8.182,0,0,1-6.013-2.09q-2.11-2.093-2.111-6.5A9.893,9.893,0,0,1,8.7,4.556,5.092,5.092,0,0,1,12.965,2.3a4.9,4.9,0,0,1,1.664.23l1.757,5.649,1.255-.2q.619-3.507,1.44-6.693A17.587,17.587,0,0,0,12.439,0,12.657,12.657,0,0,0,3.505,3.232,10.971,10.971,0,0,0,0,11.687,9.762,9.762,0,0,0,3.219,19.35a11.882,11.882,0,0,0,8.216,2.87A15.8,15.8,0,0,0,19.264,20.1l-.182-1.356a19.351,19.351,0,0,1-3.927.428" transform="translate(71.802 12.28)" fill="#fff"/>
      <path id="Fill_5" data-name="Fill 5" d="M3.795,7.6A3.8,3.8,0,1,0,0,3.8,3.8,3.8,0,0,0,3.795,7.6" transform="translate(30.355 0.585)" fill="#fff"/>
      <path id="Fill_7" data-name="Fill 7" d="M12.613,22.22A14.478,14.478,0,0,1,3.524,19.5C1.186,17.69,0,14.987,0,11.461A10.912,10.912,0,0,1,3.386,3.2,12.132,12.132,0,0,1,12.019,0,9.725,9.725,0,0,1,19.1,2.454a9.094,9.094,0,0,1,2.5,6.769c0,.413-.022.857-.067,1.356H6.957c0,3.014.755,5.213,2.245,6.533S13.176,19.1,16.583,19.1a25.588,25.588,0,0,0,4.743-.428l.181,1.423A19.6,19.6,0,0,1,12.613,22.22ZM11.471,2.1A3.521,3.521,0,0,0,8.381,3.945,9.605,9.605,0,0,0,7.046,8.388h7.618V7.844a9.214,9.214,0,0,0-.784-4.407A2.621,2.621,0,0,0,11.471,2.1Z" transform="translate(93.401 12.28)" fill="#fff"/>
      <g id="Group_11" data-name="Group 11">
        <path id="Clip_10-2" data-name="Clip 10" d="M0,0H23.328V33.792H0Z" transform="translate(0 0.123)" fill="none"/>
        <g id="Group_11-2" data-name="Group 11" clip-path="url(#clip-path)">
          <path id="Fill_9" data-name="Fill 9" d="M23.325,27.062V19.2a6.67,6.67,0,0,0-1.853-5.049,7.085,7.085,0,0,0-5.12-1.783c-2.459,0-4.944,2.15-7.463,3.657V6.763q0-3.495.135-6.584L8.778,0C6.009.6,3.725,1.174,0,1.723l.133.919,2.32.9q.09,2.466.09,5.4v19.6c0,.737-.007,1.505-.016,2.293v2.944q1.615-.017,3.255-.018,1.623,0,3.122.018v-4.71c-.009-.922-.015-1.886-.015-2.9V18.2c.949-.87,2.585-2.742,3.82-2.742a4.065,4.065,0,0,1,3.2,1.2,5.88,5.88,0,0,1,1.072,3.955v9.383c0,.367,0,.668-.007.906v2.879c1.043-.012,2.145-.021,3.312-.021,1.021,0,2.028.024,3.043.033v-5.4c0-.41,0-.852,0-1.325" transform="translate(0 0.123)" fill="#fff"/>
        </g>
      </g>
      <path id="Fill_12" data-name="Fill 12" d="M23.332,14.861V6.945a6.723,6.723,0,0,0-1.861-5.083,7.1,7.1,0,0,0-5.14-1.8C13.863.067,11.367,2.314,8.838,4V.18L8.5,0C5.646.632,3.458,1.2,0,1.713l.136.925,2.239.837q.09,2.5.091,5.455v7.418q0,1.333-.024,2.775a.108.108,0,0,0,0,.021V21.62Q4.068,21.6,5.718,21.6q1.625,0,3.122.017V15.3q0-.655,0-1.337V6.38c.768-.965,2.6-3.2,3.836-3.2a4.076,4.076,0,0,1,3.21,1.206,5.519,5.519,0,0,1,1.049,3.508l.012,11.134v2.595c1.053-.012,2.16-.021,3.334-.021,1.032,0,2.048.024,3.071.034V17.816c-.012-.8-.018-1.768-.018-2.955" transform="translate(43.198 12.28)" fill="#fff"/>
    </g>
  </g>
</svg>
