<?xml version="1.0" standalone="no"?>
<!DOCTYPE svg PUBLIC "-//W3C//DTD SVG 20010904//EN"
 "http://www.w3.org/TR/2001/REC-SVG-20010904/DTD/svg10.dtd">
<svg version="1.0" xmlns="http://www.w3.org/2000/svg"
 width="736.000000pt" height="736.000000pt" viewBox="0 0 736.000000 736.000000"
 preserveAspectRatio="xMidYMid meet">
<metadata>
Created by potrace 1.14, written by Peter Selinger 2001-2017
</metadata>
<g transform="translate(0.000000,736.000000) scale(0.100000,-0.100000)"
fill="#000000" stroke="none">
<path d="M0 3675 l0 -3345 818 0 819 0 2 107 c1 60 2 113 2 118 -2 167 -2 753
-1 760 1 6 1 15 0 20 -1 6 -1 118 0 250 0 132 1 245 1 250 -2 125 -2 433 -1
440 1 6 1 15 0 20 -1 6 -1 118 0 250 1 275 1 248 -3 300 -2 22 0 50 4 61 4 12
5 25 2 28 -4 3 -5 115 -4 249 1 133 2 249 1 257 -2 134 -1 211 5 219 3 6 3 11
-2 11 -9 0 -9 821 0 844 3 8 3 17 0 20 -4 3 -5 115 -4 249 1 133 2 247 2 252
-2 168 -2 1073 -1 1080 1 6 1 15 0 20 -1 6 -1 118 0 250 1 275 1 248 -3 300
-2 22 0 50 4 61 4 12 5 25 1 28 -3 4 -5 60 -5 126 l2 120 -820 0 -819 0 0
-3345z"/>
<path d="M5722 6923 c0 -54 -1 -102 -2 -108 -1 -5 -1 -14 0 -20 3 -13 3 -127
0 -140 -1 -5 -2 -14 0 -20 5 -28 1 -395 -4 -404 -4 -6 -4 -11 1 -11 7 0 9
-175 3 -205 -1 -5 -2 -14 0 -20 2 -14 2 -448 0 -460 -1 -5 -1 -14 0 -20 3 -13
3 -127 0 -140 -1 -5 -2 -14 0 -20 5 -28 1 -395 -4 -404 -4 -6 -4 -11 1 -11 7
0 9 -175 3 -205 -1 -5 -2 -14 0 -20 2 -14 2 -448 0 -460 -1 -5 -1 -14 0 -20 3
-13 3 -127 0 -140 -1 -5 -2 -14 0 -20 2 -14 2 -608 0 -620 -1 -5 -2 -14 0 -20
2 -14 2 -448 0 -460 -1 -5 -1 -14 0 -20 3 -13 3 -127 0 -140 -1 -5 -2 -14 0
-20 5 -28 1 -395 -4 -404 -4 -6 -4 -11 1 -11 9 0 9 -1141 0 -1164 -3 -8 -3
-17 0 -20 5 -5 8 -438 3 -461 -1 -5 -1 -14 0 -20 1 -5 2 -94 1 -197 l0 -188
820 0 819 0 0 3345 0 3345 -819 0 -819 0 0 -97z"/>
<path d="M3860 4440 c-14 -4 -106 -33 -205 -65 -218 -68 -335 -104 -355 -109
-8 -3 -28 -10 -45 -16 -16 -6 -39 -14 -50 -16 -11 -2 -40 -11 -65 -19 -25 -8
-126 -40 -225 -71 -99 -30 -191 -59 -205 -64 -37 -12 -174 -54 -180 -55 -3 -1
-59 -18 -125 -39 -66 -21 -124 -39 -130 -40 -11 -2 -111 -34 -135 -43 -8 -3
-21 -7 -27 -9 -7 -1 -43 -12 -80 -24 -38 -12 -78 -24 -90 -26 -12 -2 -42 -13
-67 -24 -25 -10 -46 -17 -46 -15 0 2 -38 -9 -84 -25 -47 -15 -87 -26 -90 -22
-3 3 -6 0 -6 -6 0 -7 15 -18 33 -25 17 -8 57 -25 87 -39 30 -15 82 -38 115
-53 111 -51 190 -87 265 -122 41 -19 118 -54 170 -78 52 -24 127 -57 165 -75
39 -18 113 -51 165 -75 52 -23 144 -66 204 -94 59 -28 110 -51 113 -51 2 0 31
-13 63 -29 32 -16 61 -27 64 -23 3 3 6 0 6 -6 0 -7 9 -12 20 -12 11 0 20 -4
20 -10 0 -5 6 -10 14 -10 13 0 194 -82 286 -129 35 -17 51 -16 110 6 8 3 21 7
29 9 8 1 37 10 65 19 28 10 56 18 61 19 6 1 39 12 75 23 36 12 126 40 200 63
74 23 142 44 150 47 8 3 20 7 25 9 6 1 69 21 140 43 72 23 137 43 146 45 9 3
76 23 148 46 73 23 137 43 144 44 7 2 19 6 27 9 8 3 76 25 150 47 74 23 176
55 225 70 50 16 151 48 225 70 74 23 160 50 190 60 30 9 79 23 108 31 56 14
65 25 30 38 -13 5 -61 27 -108 49 -47 22 -88 40 -93 41 -4 0 -33 14 -65 30
-31 15 -124 59 -207 96 -82 37 -192 88 -243 111 -52 24 -95 44 -97 44 -3 0
-134 61 -235 108 -19 9 -37 17 -40 18 -3 0 -31 12 -64 27 -32 15 -62 27 -67
27 -5 0 -9 5 -9 10 0 6 -6 10 -13 10 -8 0 -42 14 -78 31 -55 27 -102 48 -119
54 -5 2 -61 28 -195 90 -92 42 -129 58 -131 53 -1 -2 -10 4 -20 13 -13 11 -27
14 -44 9z"/>
</g>
</svg>
